<svg xmlns="http://www.w3.org/2000/svg" xml:space="preserve" enable-background="new 0 0 64 64" viewBox="0 0 64 64" id="Degreecap">
  <path d="M63.3,24.35l-31.61-9.3c-0.18-0.05-0.38-0.05-0.56,0L0.68,24.47C0.28,24.59,0,24.96,0,25.38s0.26,0.8,0.66,0.93l12.43,4.14
		l-2.45,7.06c-0.13,0.35-0.04,0.74,0.23,1c6.79,6.75,13.69,10.27,20.51,10.47c0.23,0.01,0.46,0.01,0.69,0.01
		c3.71,0,7.44-0.99,11.1-2.91c0.54,0.39,1.2,0.64,1.92,0.64c1.8,0,3.26-1.46,3.26-3.26c0-0.23-0.03-0.46-0.08-0.67
		c1.61-1.23,3.23-2.66,4.85-4.28c0.26-0.26,0.35-0.65,0.23-1l-2.48-7.19l12.45-4.12h0.02c0.4-0.14,0.67-0.52,0.66-0.94
		C63.99,24.84,63.71,24.47,63.3,24.35z M41.83,43.46c0,0.36,0.08,0.71,0.19,1.03c-3.51,1.8-7.06,2.66-10.58,2.55
		c-6.17-0.18-12.49-3.37-18.77-9.48l2.26-6.48l16.17,5.57c0.1,0.04,0.21,0.06,0.32,0.06c0.1,0,0.2-0.02,0.3-0.05l12.4-4.1v7.81
		C42.8,40.78,41.83,42,41.83,43.46z M45.09,44.78c-0.73,0-1.32-0.59-1.32-1.32c0-0.73,0.59-1.32,1.32-1.32s1.32,0.59,1.32,1.32
		C46.41,44.19,45.82,44.78,45.09,44.78z M51.32...9.32,28.79h-0.01c0,0.01,0,0.01-0.01,0.01l-4.13,1.36l-12.74-6.45c-0.48-0.25-1.06-0.05-1.3,0.42
		c-0.24,0.48-0.05,1.07,0.42,1.31l11.03,5.58l-11.16,3.69l-16.78-5.78l-10.5-3.5l27.28-8.44l28.36,8.34L49.32,28.79z" fill="#e0e0e0" class="color000000 svgShape"></path>
  <circle cx="45.09" cy="43.46" r="1.32" fill="#4a90e2" class="color49bda0 svgShape"></circle>
  <path fill="#2c2c2c" d="M59.78,25.33l-10.46,3.46h-0.01c0,0.01,0,0.01-0.01,0.01l-4.13,1.36l-12.74-6.45
		c-0.48-0.25-1.06-0.05-1.3,0.42c-0.24,0.48-0.05,1.07,0.42,1.31l11.03,5.58l-11.16,3.69l-16.78-5.78l-10.5-3.5l27.28-8.44
		L59.78,25.33z" class="color2c3254 svgShape"></path>
  <path fill="#b0b0b0" d="M51.32 37.57c-1.35 1.31-2.69 2.49-4.02 3.52-.35-.33-.77-.57-1.24-.72v-8.46l2.96-.98L51.32 37.57zM44.12 32.56v7.81c-1.32.41-2.29 1.63-2.29 3.09 0 .36.08.71.19 1.03-3.51 1.8-7.06 2.66-10.58 2.55-6.17-.18-12.49-3.37-18.77-9.48l2.26-6.48 16.17 5.57c.1.04.21.06.32.06.1 0 .2-.02.3-.05L44.12 32.56z" class="color444875 svgShape"></path>
</svg>
