<svg xmlns="http://www.w3.org/2000/svg" fill="none" viewBox="0 0 3000 3000" id="PandaGraduation">
  <path fill="#b0b0b0" d="M781.458 2828.25C898.588 2805.32 1668.51 2784.16 1824.38 2768.31C1980.25 2752.47 2532.59 2775.13 2376.32 2840.12C2220.05 2905.1 1587.95 2868.24 1436.53 2918C1318.01 2956.95 529.601 2877.55 781.458 2828.25Z" class="color83c49f svgShape"></path>
  <path fill="#4a90e2" d="M1312.15 2939.32C1236.8 2939.32 1144.34 2933.86 1065.84 2926.93C984.569 2919.76 907.582 2910.2 849.056 2900.01C746.935 2882.24 732.471 2868.18 727.717 2863.56C720.095 2856.15 720.829 2848.75 721.946 2844.99C725.569 2832.8 742.206 2824.86 779.371 2817.59C848.608 2804.03 1142.71 2791.12 1402.18 2779.72C1585.57 2771.67 1758.8 2764.06 1823.28 2757.5C1892.91 2750.42 2034.89 2750.99 2160.9 2758.86C2229.16 2763.12 2287.3 2769.23 2329.02 2776.53C2398.87 2788.75 2411.26 2802.14 2414.17 2813.63C2419.32 2834 2391.11 2845.73 2380.49 2850.15C2294.94 2885.72 2075.41 2891.3 1863.1 2896.7C1680.87 2901.33 1508.74 2905.71 1439.92 2928.32C1415.88 2936.22 1368.86 2939.32 1312.15 2939.32V2939.32ZM745.426 2850.01C752.379 2854.53 774.718 2864.56 844.946 2877.21C902.147 2887.52 978.813 2897.27 1060.82 2904.66C1237.07 2920.56 1390.17 2921.8 1433.14 2907.68C1505 2884.06 1678.68 2879.65 1862.55 2874.97C2072.86 2869.63 2290.34 2864.1 2372.14 2830.08C2385.96 2824.34 2390.82 2820.16 2392.42 2818.37C2389.38 2815.45 2375.69 2806.25 2318.84 2796.84C2277.17 2789.95 2219.97 2784.18 2153.45 2780.17C2030.38 2772.76 1892.45 2772.31 1825.48 2779.12C1760.37 2785.74 1586.85 2793.36 1403.14 2801.43C1144.42 2812.79 851.185 2825.67 783.545 2838.91C760.146 2843.49 749.851 2847.59 745.426 2850.01Z" class="color474747 svgShape"></path>
  <path fill="#4a90e2" d="M1425.02 2651.81L1411.98 2794.22C1375.47 2849.86 1082.81 2896.51 997.912 2847.83C913.013 2799.29 1019.21 2742.36 1019.21 2742.36C1019.21 2742.36 1018.05 2641.23 1032.1 2565.6C1032.1 2565.6 1340.99 2607.04 1425.02 2651.81Z" class="color474747 svgShape"></path>
  <path fill="#4a90e2" d="M1115.39 2879.11C1107.68 2879.11 1100.16 2878.96 1092.86 2878.67 1047.91 2876.87 1014.15 2869.66 992.507 2857.25 966.785 2842.55 953.874 2825.01 954.144 2805.12 954.381 2787.7 964.845 2770.08 985.247 2752.74 994.061 2745.25 1002.8 2739.5 1008.31 2736.13 1008.31 2712.56 1009.2 2629.39 1021.42 2563.62 1022.48 2557.93 1027.81 2554.07 1033.55 2554.83 1046.24 2556.54 1345.34 2597.05 1430.13 2642.22 1433.99 2644.27 1436.24 2648.44 1435.84 2652.8L1422.8 2795.21C1422.63 2796.99 1422.04 2798.69 1421.06 2800.18 1410.92 2815.64 1386.1 2830.12 1347.29 2843.21 1313.36 2854.66 1269.79 2864.49 1224.62 2870.9 1186.42 2876.32 1149.12 2879.11 1115.39 2879.11ZM1041.01 2577.81C1029.18 2650.17 1030.06 2741.28 1030.07 2742.23 1030.12 2746.28 1027.91 2750.02 1024.34 2751.93 1024.23 2752 1011.5 2758.89 999.032 2769.55 988.562 2778.5 976.045 2791.99 975.875 2805.44 975.73 2816.82 984.959 2827.91 1003.3 2838.39 1038.94 2858.83 1124.61 2863.14 1221.57 2849.38 1309.14 2836.96 1383.56 2812.38 1401.43 2790.26L1413.52 2658.21C1333.43 2620.59 1093.81 2585.27 1041.01 2577.81ZM2147.53 2781.76C1922.82 2904.19 1713.18 2795.96 1713.18 2795.96L1651.9 2626.89C1891.82 2459.55 2071.47 2531.41 2071.47 2531.41 2071.47 2531.41 2099.14 2595.88 2112.76 2651.81 2126.23 2707.88 2210.26 2742.07 2147.53 2781.76Z" class="color474747 svgShape"></path>
  <path fill="#4a90e2" d="M1919.05 2850.98C1894.34 2850.98 1869.44 2849.16 1844.52 2845.52 1763.16 2833.64 1710.4 2806.75 1708.2 2805.62 1705.77 2804.36 1703.9 2802.24 1702.97 2799.66L1641.68 2630.59C1640.01 2625.96 1641.65 2620.79 1645.68 2617.97 1701.27 2579.21 1758.32 2549.96 1815.25 2531.06 1860.97 2515.88 1906.72 2507.29 1951.23 2505.54 2027.56 2502.53 2073.58 2520.55 2075.51 2521.32 2078.18 2522.39 2080.32 2524.48 2081.46 2527.12 2082.6 2529.79 2109.64 2593.07 2123.32 2649.23 2127.72 2667.53 2141.07 2683.75 2153.99 2699.44 2169.52 2718.29 2184.19 2736.1 2180.95 2756.31 2178.89 2769.16 2169.86 2780.49 2153.34 2790.94 2153.14 2791.07 2152.94 2791.19 2152.73 2791.3 2100.32 2819.86 2044.34 2838.39 1986.35 2846.39 1964.18 2849.45 1941.69 2850.98 1919.05 2850.98ZM1721.91 2788.16C1742.32 2797.89 1790.02 2815.7 1848.48 2824.14 1894.12 2830.72 1939.68 2830.94 1983.9 2824.79 2038.97 2817.13 2092.17 2799.5 2142.01 2772.39 2152.62 2765.63 2158.5 2759.06 2159.49 2752.87 2161.18 2742.35 2149.54 2728.22 2137.22 2713.26 2123.41 2696.49 2107.76 2677.48 2102.19 2654.34 2090.95 2608.16 2069.6 2555.22 2063.29 2539.99 2045.25 2533.91 2003.88 2525.05 1950.77 2527.31 1908.42 2529.11 1864.83 2537.41 1821.21 2551.98 1768.89 2569.45 1716.37 2596.04 1664.97 2631.07L1721.91 2788.15 1721.91 2788.16ZM1186.11 1788.04 1204.08 1806.87 1106.86 1879.45 1087.16 1913.79 1000.96 2002.75C1000.96 2002.75 946.047 1883.51 924.17 1719.22 924.17 1676.33 935.76 1642.57 952.856 1616.5 974.733 1582.74 1006.03 1562.17 1032.69 1551.74 1051.81 1544.2 1068.61 1541.88 1078.03 1543.77 1189.44 1518.56 1202.92 1630.55 1177.56 1655.76 1243.63 1776.88 1186.11 1788.04 1186.11 1788.04H1186.11Z" class="color474747 svgShape"></path>
  <path fill="#4a90e2" d="M1000.96 2013.61C1000.35 2013.61 999.737 2013.56 999.127 2013.46C995.593 2012.86 992.585 2010.55 991.085 2007.29C990.529 2006.09 935.238 1884.67 913.398 1720.65C913.335 1720.18 913.303 1719.7 913.303 1719.22C913.303 1677.94 923.553 1641.38 943.767 1610.54C970.717 1568.96 1008.56 1549.51 1028.72 1541.62C1047.27 1534.31 1065.32 1531.06 1077.72 1532.71C1104.16 1527.05 1127.4 1528.3 1146.83 1536.41C1164.05 1543.61 1178.04 1556.3 1187.28 1573.11C1202.17 1600.2 1203.04 1636.66 1190.46 1656.82C1218.67 1710.33 1226.85 1750.41 1214.8 1776.03C1211.68 1782.65 1207.67 1787.38 1203.71 1790.74L1211.94 1799.37C1214.09 1801.62 1215.17 1804.68 1214.91 1807.78C1214.65 1810.88 1213.07 1813.72 1210.58 1815.58L1115.17 1886.81L1096.58 1919.2C1096.13 1919.98 1095.59 1920.71 1094.96 1921.35L1008.76 2010.31C1006.69 2012.44 1003.87 2013.61 1000.96 2013.61ZM935.037 1718.5C952.101 1845.96 989.633 1946.89 1004.54 1983.43L1078.41 1907.2L1097.44 1874.05C1098.18 1872.76 1099.17 1871.64 1100.36 1870.75L1187.75 1805.5L1178.25 1795.54C1175.44 1792.59 1174.26 1788.38 1175.59 1784.53C1176.9 1780.73 1179.96 1778.01 1183.93 1777.39C1184.94 1777.1 1191.54 1774.94 1195.41 1766.18C1200.42 1754.82 1203.52 1726.05 1168.02 1660.96C1165.71 1656.72 1166.47 1651.46 1169.9 1648.05C1178.6 1639.41 1182.37 1609.28 1168.24 1583.57C1161.29 1570.94 1151.27 1561.82 1138.45 1556.46C1122.76 1549.91 1103.24 1549.2 1080.43 1554.37C1078.94 1554.7 1077.4 1554.72 1075.9 1554.42C1069.17 1553.08 1054.43 1554.85 1036.67 1561.85C1018.92 1568.79 985.645 1585.88 961.974 1622.41C944.203 1649.52 935.152 1681.83 935.037 1718.5Z" class="color474747 svgShape"></path>
  <path fill="#2c2c2c" d="M2250.83 1865.11C2228.37 2144.29 1964.11 2100.97 1964.11 2100.97C1990.05 2151.39 2071.47 2531.41 2071.47 2531.41C2071.47 2531.41 1891.82 2459.55 1651.9 2626.89C1548.16 2667.16 1425.02 2651.81 1425.02 2651.81C1340.99 2607.04 1032.1 2565.6 1032.1 2565.6C1002.98 2470.13 1045.14 2129.95 1045.14 2129.95C793.198 2176.89 778.565 2049.4 771.321 1942.33C764.222 1835.27 847.093 1767.9 924.169 1719.22C946.046 1883.51 1000.95 2002.75 1000.95 2002.75L1087.16 1913.79L1106.86 1879.45L1204.07 1806.87L1186.11 1788.03C1186.11 1788.03 1243.63 1776.88 1177.56 1655.76C1202.92 1630.55 1189.44 1518.56 1078.03 1543.77C1086 1521.17 1120.04 1501.75 1158.44 1486.54C1177.27 1479.01 1197.27 1472.63 1215.81 1467.27C1256.81 1455.54 1290.86 1449.16 1290.86 1449.16C1290.86 1449.16 1519.48 1429.6 1659.87 1449.16C1689.71 1453.36 1717.53 1459.74 1742.88 1467.56C1759.98 1472.78 1776.06 1478.57 1790.69 1484.37C1826.91 1499 1855.31 1514.65 1873.56 1525.8C1888.49 1534.78 1896.6 1540.87 1896.6 1540.87C1868.06 1574.34 1853.71 1638.66 1853.71 1638.66C1785.48 1637.5 1795.04 1723.27 1784.17 1743.85C1773.31 1764.27 1762.15 1793.1 1776.93 1817.73C1791.85 1842.22 1763.17 1883.08 1798.08 1929.58C1833 1976.09 2018.15 1968.7 2018.15 1968.7C2065.96 1728.34 1979.33 1671.55 1979.33 1671.55C1940.93 1661.41 1955.13 1578.68 1955.13 1578.68C1955.13 1578.68 2262.42 1757.03 2250.83 1865.11L2250.83 1865.11Z" class="color232323 svgShape"></path>
  <path fill="#2c2c2c" d="M1482.48 2665.55C1447.87 2665.55 1424.79 2662.73 1423.67 2662.59C1422.35 2662.42 1421.08 2662.02 1419.91 2661.4C1338.54 2618.05 1033.73 2576.78 1030.66 2576.37C1026.45 2575.81 1022.95 2572.84 1021.71 2568.77C995.394 2482.49 1024.81 2210.24 1032.62 2143.19C936.714 2159.12 868.632 2150.27 824.771 2116.26C800.584 2097.51 783.928 2071.3 773.848 2036.14C765.308 2006.36 762.561 1973.83 760.48 1943.06C752.96 1829.65 840.907 1758.95 918.367 1710.03C921.498 1708.05 925.42 1707.8 928.773 1709.37C932.127 1710.94 934.451 1714.11 934.94 1717.78C951.958 1845.59 989.604 1946.82 1004.54 1983.43L1078.41 1907.2L1097.44 1874.04C1098.18 1872.76 1099.17 1871.63 1100.36 1870.75L1187.75 1805.5L1178.25 1795.53C1175.44 1792.59 1174.26 1788.37 1175.59 1784.53C1176.9 1780.73 1179.96 1778.01 1183.92 1777.38C1184.94 1777.1 1191.54 1774.94 1195.4 1766.18C1200.42 1754.82 1203.52 1726.05 1168.02 1660.96C1165.71 1656.72 1166.47 1651.46 1169.9 1648.05C1178.59 1639.41 1182.36 1609.28 1168.23 1583.57C1161.29 1570.94 1151.27 1561.82 1138.45 1556.46C1122.76 1549.91 1103.24 1549.2 1080.43 1554.37C1076.57 1555.24 1072.54 1553.95 1069.91 1550.99C1067.28 1548.04 1066.47 1543.89 1067.78 1540.15C1075.89 1517.17 1104.23 1496.33 1154.44 1476.44C1171.02 1469.8 1190.12 1463.39 1212.79 1456.83C1253.84 1445.08 1287.45 1438.74 1288.86 1438.48C1289.21 1438.41 1289.57 1438.36 1289.93 1438.33C1292.23 1438.14 1521.39 1418.9 1661.37 1438.4C1690.49 1442.5 1718.99 1448.81 1746.09 1457.18C1761.86 1461.99 1778.22 1467.74 1794.69 1474.26C1832.2 1489.41 1861.36 1505.61 1879.23 1516.53C1894.39 1525.65 1902.77 1531.91 1903.12 1532.18C1905.52 1533.98 1907.07 1536.69 1907.4 1539.67C1907.73 1542.65 1906.81 1545.64 1904.87 1547.92C1878.44 1578.91 1864.46 1640.41 1864.32 1641.03C1863.19 1646.06 1858.69 1649.63 1853.53 1649.53C1835.07 1649.21 1822.54 1656.11 1814.11 1671.24C1806.16 1685.51 1803.18 1704.71 1800.78 1720.13C1798.87 1732.44 1797.35 1742.15 1793.78 1748.92C1779.4 1775.96 1776.94 1796.63 1786.24 1812.14C1793.97 1824.82 1792.83 1839.44 1791.61 1854.91C1789.94 1876.26 1788.21 1898.34 1806.77 1923.06C1813.81 1932.44 1838.13 1949.15 1921.87 1955.73C1958.67 1958.62 1993.53 1958.39 2009.14 1958.07C2021.49 1892.59 2030.28 1803.8 2007.3 1736.15C1995.09 1700.21 1978.66 1684.94 1974.34 1681.41C1950.01 1673.46 1943.29 1644.87 1941.98 1621.93C1940.68 1599.01 1944.27 1577.74 1944.42 1576.85C1945.02 1573.34 1947.3 1570.35 1950.53 1568.84C1953.75 1567.33 1957.51 1567.5 1960.58 1569.29C1961.36 1569.74 2038.89 1614.9 2113.96 1672.76C2158.32 1706.95 2193.25 1738.9 2217.79 1767.72C2249.8 1805.31 2264.55 1838.42 2261.65 1866.12C2254.58 1953.7 2223.52 2019.6 2169.35 2062C2123.56 2097.83 2069.74 2109.43 2032.65 2112.86C2011.53 2114.81 1993.43 2114.43 1980.89 2113.61C2011.99 2202.64 2079.02 2514.79 2082.09 2529.14C2082.93 2533.06 2081.54 2537.13 2078.47 2539.72C2075.41 2542.31 2071.16 2542.99 2067.43 2541.5C2067.01 2541.33 2022.89 2524.24 1950.77 2527.31C1908.42 2529.11 1864.83 2537.41 1821.2 2551.98C1766.56 2570.23 1711.69 2598.43 1658.11 2635.8C1657.4 2636.29 1656.64 2636.7 1655.83 2637.01C1625.45 2648.81 1573.73 2663.29 1499.85 2665.31C1493.8 2665.48 1487.99 2665.55 1482.48 2665.55L1482.48 2665.55ZM1428.24 2641.23C1443.92 2642.88 1554 2652.78 1646.76 2617.22C1702.01 2578.83 1758.68 2549.84 1815.25 2531.06C1860.97 2515.88 1906.72 2507.29 1951.22 2505.54C2000.1 2503.61 2036.54 2510.31 2056.94 2515.57C2027.69 2380.32 1973.56 2143.09 1954.45 2105.94C1952.57 2102.3 1952.91 2097.9 1955.33 2094.58C1957.74 2091.26 1961.82 2089.58 1965.87 2090.25C1966.14 2090.29 1993.95 2094.69 2031.34 2091.15C2065.37 2087.93 2114.65 2077.27 2156.09 2044.77C2205.23 2006.25 2233.46 1945.5 2240 1864.24C2240.01 1864.14 2240.01 1864.05 2240.02 1863.95C2242.34 1842.38 2229.29 1814.74 2201.24 1781.8C2177.68 1754.14 2143.85 1723.24 2100.69 1689.97C2045.78 1647.64 1989.56 1612.24 1963.95 1596.63C1962.1 1622.15 1964.56 1656.41 1982.1 1661.05C1983.23 1661.34 1984.3 1661.82 1985.28 1662.46C1989.07 1664.95 2077.49 1726.09 2028.81 1970.82C2027.83 1975.74 2023.6 1979.36 2018.58 1979.56C2016.67 1979.63 1971.07 1981.38 1920.36 1977.41C1848.9 1971.82 1806.06 1958.31 1789.39 1936.1C1765.9 1904.82 1768.24 1874.99 1769.95 1853.21C1770.96 1840.32 1771.76 1830.13 1767.65 1823.39C1747.45 1789.73 1767.87 1751.35 1774.58 1738.74C1776.44 1735.22 1777.89 1725.85 1779.3 1716.79C1781.97 1699.66 1785.29 1678.34 1795.12 1660.67C1806.12 1640.92 1822.92 1629.99 1845.14 1628.09C1849.6 1611.11 1861.42 1571.63 1881.04 1543.33C1877.59 1541.07 1873.21 1538.27 1867.96 1535.11C1850.72 1524.58 1822.68 1509.01 1786.62 1494.44C1770.76 1488.16 1754.95 1482.6 1739.71 1477.95C1713.68 1469.92 1686.32 1463.86 1658.35 1459.92C1524.09 1441.22 1304.91 1458.9 1292.33 1459.94C1287.9 1460.8 1256.06 1467.05 1218.8 1477.72C1196.85 1484.06 1178.42 1490.25 1162.47 1496.63C1131.34 1508.96 1113.05 1520.21 1102.33 1529.39C1118.79 1528.58 1133.68 1530.92 1146.82 1536.41C1164.05 1543.61 1178.04 1556.3 1187.28 1573.11C1202.17 1600.2 1203.04 1636.66 1190.46 1656.82C1218.66 1710.33 1226.85 1750.41 1214.79 1776.03C1211.68 1782.65 1207.67 1787.37 1203.7 1790.74L1211.94 1799.37C1214.08 1801.62 1215.16 1804.68 1214.9 1807.78C1214.64 1810.88 1213.07 1813.71 1210.58 1815.57L1115.17 1886.81L1096.58 1919.2C1096.13 1919.98 1095.59 1920.7 1094.96 1921.35L1008.76 2010.31C1006.26 2012.88 1002.66 2014.06 999.125 2013.46C995.592 2012.85 992.583 2010.55 991.084 2007.29C990.547 2006.12 939.01 1892.94 915.788 1737.57C862.395 1772.91 838.309 1798.85 824.616 1815.72C793.015 1854.67 779.128 1895.84 782.163 1941.61C784.164 1971.19 786.785 2002.42 794.738 2030.15C803.5 2060.71 817.68 2083.26 838.087 2099.08C857.217 2113.92 881.649 2123.04 912.778 2126.97C948.006 2131.41 991.87 2128.82 1043.15 2119.26C1046.56 2118.63 1050.06 2119.66 1052.59 2122.03C1055.11 2124.41 1056.35 2127.84 1055.93 2131.28C1055.52 2134.59 1016.22 2455.23 1040.69 2555.81C1088.32 2562.41 1347.42 2599.75 1428.24 2641.23V2641.23Z" class="color232323 svgShape"></path>
  <path fill="#b0b0b0" d="M1873.56 1525.8L1421.83 2035.78L1334.9 1944.36L1204.08 1806.87L1186.11 1788.04C1186.11 1788.04 1243.63 1776.88 1177.56 1655.76C1202.92 1630.55 1189.44 1518.56 1078.03 1543.77C1086 1521.17 1120.05 1501.75 1158.44 1486.54C1177.27 1479.01 1197.27 1472.63 1215.81 1467.27C1256.81 1455.54 1290.86 1449.16 1290.86 1449.16C1290.86 1449.16 1519.48 1429.6 1659.87 1449.16C1689.71 1453.36 1717.53 1459.74 1742.88 1467.56C1759.98 1472.78 1776.06 1478.57 1790.69 1484.37C1826.91 1499 1855.31 1514.65 1873.56 1525.8Z" class="color83c49f svgShape"></path>
  <path fill="#4a90e2" d="M1421.83 2046.64C1418.86 2046.64 1416.01 2045.42 1413.95 2043.27L1327.03 1951.85L1196.2 1814.36L1178.25 1795.54C1175.44 1792.6 1174.26 1788.38 1175.59 1784.54C1176.9 1780.73 1179.96 1778.01 1183.93 1777.39C1184.94 1777.1 1191.54 1774.94 1195.4 1766.18C1200.42 1754.82 1203.52 1726.05 1168.02 1660.96C1165.71 1656.72 1166.48 1651.46 1169.9 1648.06C1178.6 1639.41 1182.37 1609.28 1168.24 1583.57C1161.29 1570.94 1151.27 1561.82 1138.45 1556.46C1122.76 1549.91 1103.24 1549.21 1080.43 1554.37C1076.57 1555.24 1072.54 1553.95 1069.91 1550.99C1067.28 1548.04 1066.47 1543.89 1067.78 1540.16C1075.88 1517.17 1104.23 1496.33 1154.44 1476.44C1171.02 1469.81 1190.12 1463.39 1212.79 1456.83C1253.84 1445.09 1287.45 1438.75 1288.86 1438.48C1289.21 1438.42 1289.57 1438.37 1289.93 1438.34C1292.23 1438.14 1521.39 1418.9 1661.37 1438.4C1690.49 1442.5 1718.99 1448.82 1746.09 1457.18C1761.86 1461.99 1778.22 1467.74 1794.69 1474.27C1832.19 1489.42 1861.36 1505.61 1879.23 1516.53C1881.97 1518.21 1883.83 1521.01 1884.31 1524.19C1884.78 1527.37 1883.83 1530.6 1881.7 1533.01L1429.96 2042.98C1427.95 2045.26 1425.06 2046.59 1422.02 2046.64C1421.96 2046.64 1421.89 2046.64 1421.83 2046.64ZM1203.7 1790.74L1211.94 1799.37L1342.77 1936.87L1421.55 2019.71L1856.71 1528.44C1839.55 1518.58 1815.69 1506.19 1786.62 1494.44C1770.76 1488.16 1754.96 1482.6 1739.71 1477.95C1713.68 1469.92 1686.32 1463.86 1658.35 1459.92C1524.09 1441.22 1304.91 1458.9 1292.33 1459.94C1287.9 1460.8 1256.06 1467.05 1218.8 1477.72C1196.85 1484.06 1178.42 1490.25 1162.47 1496.63C1145.08 1503.52 1118.74 1515.36 1102.25 1529.39C1118.73 1528.57 1133.66 1530.91 1146.83 1536.41C1164.05 1543.61 1178.04 1556.3 1187.28 1573.11C1202.17 1600.2 1203.04 1636.66 1190.46 1656.82C1218.66 1710.33 1226.85 1750.41 1214.79 1776.03C1211.68 1782.65 1207.67 1787.38 1203.7 1790.74L1203.7 1790.74Z" class="color474747 svgShape"></path>
  <path fill="#b0b0b0" d="M1790.69 1484.37L1411.98 1892.78C1411.98 1892.78 1217.98 1690.1 1158.44 1486.54C1177.27 1479.01 1197.27 1472.63 1215.81 1467.27C1256.81 1455.54 1290.86 1449.16 1290.86 1449.16C1290.86 1449.16 1519.48 1429.6 1659.87 1449.16C1689.71 1453.36 1717.53 1459.74 1742.88 1467.56C1759.98 1472.78 1776.06 1478.57 1790.69 1484.37Z" class="color83c49f svgShape"></path>
  <path fill="#4a90e2" d="M1411.98 1903.65C1409.02 1903.65 1406.18 1902.44 1404.13 1900.3C1403.64 1899.78 1354.5 1848.24 1298.78 1772.43C1266.03 1727.87 1237.4 1683.71 1213.69 1641.18C1183.92 1587.8 1161.82 1536.8 1148.01 1489.59C1146.44 1484.22 1149.2 1478.53 1154.4 1476.45C1171.02 1469.8 1190.12 1463.39 1212.79 1456.83C1253.84 1445.08 1287.45 1438.74 1288.86 1438.48C1289.21 1438.41 1289.57 1438.36 1289.93 1438.33C1292.23 1438.14 1521.39 1418.9 1661.37 1438.4C1690.49 1442.5 1718.99 1448.81 1746.09 1457.18C1761.86 1461.99 1778.22 1467.74 1794.69 1474.26C1798.03 1475.58 1800.5 1478.46 1801.29 1481.96C1802.08 1485.46 1801.1 1489.12 1798.66 1491.75L1419.95 1900.17C1417.91 1902.37 1415.06 1903.62 1412.06 1903.65C1412.03 1903.65 1412.01 1903.65 1411.98 1903.65V1903.65ZM1171.77 1493.04C1189.95 1550.87 1229.62 1641.58 1316.11 1759.3C1358 1816.34 1396.07 1859.38 1411.98 1876.8L1771.79 1488.77C1760.93 1484.77 1750.19 1481.15 1739.71 1477.95C1713.68 1469.92 1686.32 1463.86 1658.35 1459.92C1524.13 1441.22 1304.92 1458.9 1292.33 1459.94C1287.9 1460.8 1256.07 1467.05 1218.8 1477.72C1200.99 1482.87 1185.5 1487.91 1171.77 1493.04Z" class="color474747 svgShape"></path>
  <path fill="#e0e0e0" d="M1742.88 1467.56L1547.73 1674.16L1411.98 1817.74C1411.98 1817.74 1352 1756.89 1295.93 1660.4C1264.2 1605.92 1233.63 1540 1215.81 1467.27C1256.81 1455.54 1290.86 1449.16 1290.86 1449.16C1290.86 1449.16 1296.22 1448.73 1305.93 1448C1352.72 1444.52 1500.35 1435.25 1615.97 1444.53C1631.32 1445.68 1645.96 1447.28 1659.86 1449.16C1689.71 1453.36 1717.53 1459.74 1742.88 1467.56L1742.88 1467.56Z" class="colorf7f7f7 svgShape"></path>
  <path fill="#4a90e2" d="M1411.98 1828.6C1409.07 1828.6 1406.28 1827.44 1404.24 1825.36C1401.75 1822.84 1342.65 1762.42 1286.54 1665.86C1248.45 1600.47 1221.1 1534.52 1205.26 1469.86C1203.87 1464.19 1207.21 1458.43 1212.82 1456.83C1253.84 1445.09 1287.45 1438.75 1288.86 1438.48C1289.23 1438.41 1289.6 1438.36 1289.98 1438.33C1289.98 1438.33 1295.37 1437.89 1305.12 1437.17C1348.35 1433.95 1498.59 1424.21 1616.84 1433.69C1631.48 1434.8 1646.47 1436.38 1661.32 1438.39C1690.49 1442.5 1718.99 1448.82 1746.09 1457.18C1749.67 1458.29 1752.44 1461.17 1753.39 1464.8C1754.35 1468.43 1753.36 1472.3 1750.78 1475.02L1555.63 1681.62L1419.87 1825.2C1417.85 1827.34 1415.04 1828.57 1412.09 1828.6C1412.05 1828.6 1412.02 1828.6 1411.98 1828.6L1411.98 1828.6ZM1228.96 1474.88C1244.62 1534.26 1270.28 1594.78 1305.32 1654.93C1348.37 1729.01 1394.21 1782.29 1412.02 1801.87L1539.83 1666.7L1722.75 1473.05C1701.9 1467.42 1680.31 1463.01 1658.35 1459.92C1643.97 1457.97 1629.42 1456.44 1615.15 1455.36C1498.41 1446 1349.57 1455.66 1306.73 1458.84C1298.92 1459.42 1293.94 1459.82 1292.32 1459.95C1288.23 1460.73 1261.66 1465.96 1228.96 1474.88Z" class="color474747 svgShape"></path>
  <path fill="#4a90e2" d="M1615.97 1444.53C1589.89 1490.31 1540.49 1561.3 1476.31 1579.99C1467.32 1582.74 1458.19 1584.33 1448.78 1584.77C1429.22 1585.64 1412.12 1583.75 1397.49 1579.26C1338.52 1562.02 1315.63 1507.26 1305.93 1448C1352.72 1444.52 1500.36 1435.25 1615.97 1444.53Z" class="color474747 svgShape"></path>
  <path fill="#4a90e2" d="M1439.75 1595.84C1422.98 1595.84 1407.76 1593.77 1394.38 1589.67C1340.48 1573.88 1308.04 1528.12 1295.2 1449.76C1294.71 1446.75 1295.5 1443.67 1297.39 1441.28C1299.28 1438.88 1302.08 1437.39 1305.12 1437.17C1348.35 1433.95 1498.59 1424.21 1616.84 1433.69C1620.54 1433.99 1623.84 1436.16 1625.57 1439.44C1627.31 1442.73 1627.25 1446.67 1625.41 1449.9C1607.77 1480.87 1588.6 1507.74 1568.44 1529.76C1539.69 1561.15 1509.74 1581.55 1479.41 1590.4C1469.61 1593.4 1459.47 1595.15 1449.28 1595.62C1446.05 1595.77 1442.88 1595.84 1439.75 1595.84ZM1318.77 1457.98C1331.27 1520.87 1357.43 1556.23 1400.54 1568.83C1400.59 1568.85 1400.63 1568.86 1400.68 1568.88C1414.19 1573.02 1430.21 1574.72 1448.3 1573.91C1456.8 1573.52 1464.93 1572.11 1473.12 1569.6C1473.17 1569.58 1473.22 1569.57 1473.27 1569.56C1527.83 1553.67 1572.06 1495.65 1597.66 1454.11C1493.44 1447.53 1369.95 1454.45 1318.77 1457.98L1318.77 1457.98Z" class="color474747 svgShape"></path>
  <path fill="#e0e0e0" d="M1547.73 1674.16L1490.07 1735.15L1411.98 1817.73C1411.98 1817.73 1386.04 1791.37 1352.43 1745.87C1334.76 1722.26 1315.2 1693.43 1295.93 1660.4C1305.06 1647.21 1317.95 1631.71 1335.48 1617.08C1351.85 1603.02 1372.28 1589.69 1397.49 1579.26C1412.12 1583.75 1429.22 1585.64 1448.78 1584.77C1458.2 1584.33 1467.32 1582.74 1476.31 1579.99C1491.52 1589.26 1505.14 1603.6 1517.02 1620.12C1528.9 1636.64 1539.18 1655.62 1547.73 1674.16Z" class="colorf7f7f7 svgShape"></path>
  <path fill="#4a90e2" d="M1411.98 1828.6C1409.07 1828.6 1406.28 1827.43 1404.23 1825.35C1403.15 1824.26 1377.37 1797.92 1343.69 1752.33C1323.52 1725.38 1304.28 1696.27 1286.54 1665.87C1284.42 1662.23 1284.59 1657.68 1287 1654.21C1298.75 1637.23 1312.7 1621.95 1328.46 1608.78C1347.46 1592.48 1369.29 1579.18 1393.34 1569.22C1395.67 1568.26 1398.27 1568.14 1400.68 1568.88C1414.19 1573.02 1430.21 1574.72 1448.3 1573.91C1456.8 1573.52 1464.93 1572.11 1473.12 1569.6C1476.09 1568.69 1479.31 1569.09 1481.96 1570.71C1497.2 1580 1511.96 1594.49 1525.84 1613.78C1536.97 1629.25 1547.65 1648.04 1557.6 1669.61C1559.46 1673.64 1558.68 1678.4 1555.63 1681.63L1497.96 1742.62L1419.87 1825.2C1417.85 1827.35 1415.04 1828.57 1412.08 1828.6C1412.05 1828.6 1412.01 1828.6 1411.98 1828.6ZM1308.88 1660.98C1325.2 1688.47 1342.76 1714.81 1361.13 1739.36C1383.19 1769.22 1402.02 1790.86 1412.03 1801.87L1482.17 1727.69L1534.74 1672.08C1526.29 1654.55 1517.38 1639.23 1508.19 1626.46C1497.26 1611.27 1485.96 1599.63 1474.53 1591.78C1466.26 1593.94 1457.79 1595.23 1449.28 1595.62C1430.34 1596.46 1413.18 1594.83 1398.18 1590.77C1377.61 1599.67 1358.91 1611.29 1342.56 1625.32C1342.52 1625.35 1342.48 1625.39 1342.44 1625.42C1329.92 1635.87 1318.65 1647.82 1308.88 1660.98Z" class="color474747 svgShape"></path>
  <path fill="#c4c4c4" d="M1462.4 1675.9L1490.07 1735.15L1411.98 1817.73C1411.98 1817.73 1386.05 1791.37 1352.43 1745.87L1373.59 1669.09L1335.48 1617.08C1351.86 1603.02 1372.28 1589.69 1397.49 1579.26C1412.12 1583.75 1429.22 1585.64 1448.78 1584.77C1458.2 1584.33 1467.32 1582.74 1476.31 1579.99C1491.52 1589.26 1505.14 1603.6 1517.02 1620.12L1462.4 1675.9L1462.4 1675.9Z" class="colorf29797 svgShape"></path>
  <path fill="#4a90e2" d="M1412.13 1833.39L1404.23 1825.35C1403.15 1824.26 1377.37 1797.92 1343.69 1752.33L1340.55 1748.08L1361.71 1671.27L1320.77 1615.39L1328.4 1608.83C1347.42 1592.51 1369.26 1579.18 1393.33 1569.22L1396.94 1567.73L1400.68 1568.88C1414.19 1573.02 1430.21 1574.72 1448.29 1573.91C1456.8 1573.52 1464.92 1572.11 1473.12 1569.6L1477.79 1568.17L1481.96 1570.71C1497.2 1580 1511.96 1594.49 1525.83 1613.78L1531.17 1621.19L1475.42 1678.12L1503.04 1737.25L1412.13 1833.39H1412.13ZM1364.32 1743.65C1384.99 1771.29 1402.5 1791.39 1412.03 1801.87L1477.1 1733.06L1449.36 1673.68L1502.72 1619.19C1493.51 1607.51 1484.06 1598.32 1474.53 1591.78C1466.26 1593.94 1457.79 1595.23 1449.28 1595.62C1430.34 1596.46 1413.18 1594.83 1398.18 1590.77C1380.8 1598.29 1364.75 1607.75 1350.33 1618.96L1385.46 1666.91L1364.32 1743.65L1364.32 1743.65Z" class="color474747 svgShape"></path>
  <path fill="#707070" d="M1045.14 2129.95L1000.96 2002.75L1087.16 1913.79C1149.17 2018.54 1045.14 2129.95 1045.14 2129.95Z" class="color707070 svgShape"></path>
  <path fill="#4a90e2" d="M1045.14 2140.82C1044.39 2140.82 1043.64 2140.74 1042.9 2140.58C1039.17 2139.79 1036.13 2137.11 1034.88 2133.52L990.691 2006.31C989.344 2002.44 990.296 1998.13 993.152 1995.19L1079.36 1906.23C1081.71 1903.8 1085.07 1902.6 1088.43 1903C1091.8 1903.4 1094.78 1905.34 1096.51 1908.26C1123.74 1954.25 1124.71 2008.64 1099.33 2065.57C1080.55 2107.7 1054.2 2136.17 1053.09 2137.37C1051.01 2139.59 1048.12 2140.82 1045.14 2140.82L1045.14 2140.82ZM1013.41 2005.5L1049.03 2108.02C1057.86 2096.26 1070.02 2078.09 1079.72 2056.18C1099.82 2010.78 1101.41 1969.12 1084.51 1932.13L1013.41 2005.5Z" class="color474747 svgShape"></path>
  <path fill="#707070" d="M1887.08 1973.3H1958.53L2018.08 1968.68L1964.11 2100.97C1964.11 2100.97 1891.38 2074.56 1887.08 1973.3Z" class="color707070 svgShape"></path>
  <path fill="#4a90e2" d="M1964.11 2111.84C1962.88 2111.84 1961.63 2111.63 1960.4 2111.19C1959.57 2110.88 1939.64 2103.49 1919.42 2082.68C1901.02 2063.76 1878.59 2029.49 1876.23 1973.76C1876.1 1970.81 1877.19 1967.92 1879.24 1965.79C1881.29 1963.65 1884.12 1962.44 1887.08 1962.44H1958.11L2017.24 1957.85C2020.99 1957.56 2024.64 1959.24 2026.86 1962.28C2029.08 1965.32 2029.57 1969.3 2028.14 1972.79L1974.18 2105.08C1972.46 2109.28 1968.41 2111.84 1964.11 2111.84L1964.11 2111.84ZM1898.74 1984.17C1902.11 2017.82 1914.03 2045.56 1934.25 2066.75C1943.19 2076.12 1952.08 2082.3 1958.47 2086.04L2001.37 1980.88L1959.37 1984.14C1959.09 1984.16 1958.81 1984.17 1958.53 1984.17H1898.74Z" class="color474747 svgShape"></path>
  <path fill="#e0e0e0" d="M1335.48 1942.33C1335.48 1942.33 1335.34 1943.06 1334.9 1944.36C1330.99 1958.7 1302.16 2047.8 1197.56 2050.12L1106.86 1879.45L1204.08 1806.87L1335.48 1942.33Z" class="colorf7f7f7 svgShape"></path>
  <path fill="#4a90e2" d="M1197.56 2060.99C1193.54 2060.99 1189.85 2058.77 1187.96 2055.22L1097.27 1884.55C1094.75 1879.82 1096.06 1873.95 1100.36 1870.75L1197.57 1798.16C1201.95 1794.89 1208.07 1795.38 1211.87 1799.3L1343.28 1934.77C1345.77 1937.33 1346.84 1940.96 1346.14 1944.46C1346.06 1944.86 1345.82 1945.91 1345.31 1947.5C1343.04 1955.7 1334.28 1982.97 1312.25 2008.8C1284.02 2041.91 1244.44 2059.95 1197.8 2060.99C1197.71 2060.99 1197.63 2060.99 1197.55 2060.99H1197.56ZM1120.83 1882.58L1203.94 2038.98C1241.76 2036.67 1272.61 2021.8 1295.72 1994.7C1312.36 1975.19 1320.34 1954.4 1323.26 1945.34L1202.93 1821.29L1120.83 1882.58Z" class="color474747 svgShape"></path>
  <path fill="#e0e0e0" d="M1032.68 1551.74C1006.03 1562.17 974.732 1582.74 952.855 1616.5L755.674 1376.29L913.737 1295.16L1032.68 1551.74L1032.68 1551.74Z" class="colorf7f7f7 svgShape"></path>
  <path fill="#4a90e2" d="M952.854 1627.36C949.612 1627.36 946.526 1625.91 944.456 1623.39L747.275 1383.18C745.191 1380.64 744.367 1377.3 745.035 1374.08C745.703 1370.86 747.789 1368.12 750.712 1366.62L908.775 1285.49C911.406 1284.14 914.475 1283.92 917.271 1284.88C920.068 1285.84 922.352 1287.9 923.596 1290.59L1042.54 1547.17C1043.8 1549.89 1043.88 1553.01 1042.77 1555.79C1041.65 1558.57 1039.43 1560.77 1036.64 1561.86C1018.92 1568.79 985.644 1585.88 961.974 1622.41C960.088 1625.32 956.927 1627.15 953.465 1627.35C953.261 1627.36 953.057 1627.36 952.854 1627.36ZM772.619 1379.8L952.235 1598.62C973.702 1570.94 999.574 1554.91 1018.13 1546.18L908.636 1309.99L772.618 1379.8H772.619Z" class="color474747 svgShape"></path>
  <path fill="#848484" d="M1000.95 1860.62C999.141 1860.62 997.314 1860.17 995.63 1859.22C977.728 1849.16 958.463 1822.87 938.373 1781.1C923.884 1750.97 914.321 1723.96 913.921 1722.83C911.926 1717.17 914.898 1710.97 920.557 1708.97C926.215 1706.98 932.422 1709.95 934.417 1715.6C934.512 1715.87 944.045 1742.78 958.041 1771.85C975.623 1808.37 992.754 1832.68 1006.28 1840.28C1011.51 1843.22 1013.37 1849.85 1010.43 1855.08C1008.43 1858.63 1004.74 1860.62 1000.95 1860.62Z" class="color848484 svgShape"></path>
  <path fill="#4a90e2" d="M2018.15 1968.7C2018.15 1968.7 1833 1976.09 1798.08 1929.58C1763.17 1883.08 1791.85 1842.22 1776.93 1817.73C1762.15 1793.1 1773.31 1764.27 1784.17 1743.85C1795.04 1723.27 1785.48 1637.5 1853.71 1638.66C1853.71 1638.66 1868.06 1574.34 1896.6 1540.87C1960.93 1509.14 1955.13 1578.68 1955.13 1578.68C1955.13 1578.68 1940.93 1661.41 1979.33 1671.55C1979.33 1671.55 2065.97 1728.34 2018.16 1968.7L2018.15 1968.7Z" class="color474747 svgShape"></path>
  <path fill="#4a90e2" d="M1990.47 1980.01C1972.24 1980.01 1947.01 1979.5 1920.36 1977.41C1848.9 1971.82 1806.06 1958.31 1789.39 1936.1C1765.91 1904.82 1768.24 1874.99 1769.95 1853.21C1770.96 1840.32 1771.76 1830.13 1767.65 1823.39C1747.46 1789.73 1767.87 1751.35 1774.58 1738.74C1776.44 1735.22 1777.9 1725.85 1779.31 1716.79C1781.97 1699.66 1785.29 1678.34 1795.13 1660.67C1806.12 1640.92 1822.92 1629.99 1845.14 1628.09C1850.14 1609.1 1864.32 1561.97 1888.33 1533.82C1889.29 1532.69 1890.47 1531.78 1891.79 1531.12C1914.84 1519.76 1933.4 1518.67 1946.95 1527.9C1956.36 1534.31 1962.6 1545.52 1965.02 1560.33C1966.68 1570.55 1965.99 1579.22 1965.96 1579.58C1965.93 1579.9 1965.89 1580.21 1965.84 1580.52C1961.79 1604.32 1960.43 1655.32 1982.1 1661.04C1983.23 1661.34 1984.31 1661.82 1985.28 1662.46C1989.07 1664.94 2077.49 1726.09 2028.81 1970.82C2027.83 1975.74 2023.61 1979.36 2018.59 1979.56C2017.68 1979.59 2006.93 1980.01 1990.47 1980.01ZM1852.34 1649.52C1834.52 1649.52 1822.36 1656.44 1814.11 1671.25C1806.17 1685.52 1803.18 1704.71 1800.78 1720.14C1798.87 1732.44 1797.36 1742.15 1793.78 1748.92C1779.4 1775.96 1776.94 1796.63 1786.25 1812.14C1793.97 1824.82 1792.83 1839.44 1791.62 1854.91C1789.94 1876.26 1788.21 1898.34 1806.77 1923.06C1813.81 1932.44 1838.13 1949.15 1921.87 1955.73C1958.67 1958.62 1993.53 1958.39 2009.15 1958.07C2021.69 1891.55 2030.49 1801.49 2006.43 1733.62C1994.24 1699.23 1978.49 1684.75 1974.38 1681.42C1960.41 1676.83 1944.3 1662.6 1941.98 1621.93C1940.78 1600.77 1943.75 1581.01 1944.33 1577.4C1944.76 1570.79 1943.89 1552.08 1934.69 1545.85C1926.98 1540.63 1913.83 1544.77 1903.44 1549.64C1877.94 1581.12 1864.46 1640.43 1864.32 1641.03C1863.2 1646.07 1858.7 1649.63 1853.53 1649.53C1853.13 1649.52 1852.73 1649.52 1852.34 1649.52L1852.34 1649.52Z" class="color474747 svgShape"></path>
  <path fill="#848484" d="M2078.43 1705.6C2077.61 1705.6 2076.78 1705.51 2075.95 1705.31L1976.85 1682.13C1971.01 1680.76 1967.38 1674.92 1968.75 1669.08 1970.11 1663.23 1975.95 1659.6 1981.8 1660.97L2080.9 1684.15C2086.74 1685.52 2090.37 1691.36 2089 1697.21 2087.83 1702.22 2083.37 1705.6 2078.43 1705.6ZM1940.49 2805.08C1940.42 2805.08 1940.35 2805.08 1940.28 2805.08 1934.28 2804.97 1929.51 2800.02 1929.62 2794.02 1930.32 2755.44 1900.48 2737.78 1900.18 2737.6 1894.98 2734.6 1893.2 2727.96 1896.2 2722.76 1899.2 2717.56 1905.84 2715.78 1911.04 2718.78 1912.72 2719.75 1952.28 2743.16 1951.35 2794.41 1951.24 2800.35 1946.4 2805.08 1940.49 2805.08ZM2055.27 2786.29C2055.21 2786.29 2055.14 2786.29 2055.07 2786.29 2049.07 2786.18 2044.3 2781.23 2044.41 2775.23 2045.1 2737.08 2016.15 2719.51 2014.92 2718.78 2009.72 2715.78 2007.96 2709.15 2010.96 2703.96 2013.96 2698.76 2020.63 2696.99 2025.83 2699.99 2027.51 2700.96 2067.07 2724.37 2066.13 2775.62 2066.03 2781.56 2061.18 2786.29 2055.27 2786.29L2055.27 2786.29ZM1106.46 2839.12C1100.55 2839.12 1095.71 2834.38 1095.6 2828.45 1094.66 2777.2 1134.22 2753.78 1135.91 2752.81 1141.1 2749.81 1147.75 2751.6 1150.75 2756.79 1153.74 2761.98 1151.97 2768.6 1146.81 2771.61 1145.48 2772.4 1116.63 2789.97 1117.32 2828.05 1117.43 2834.05 1112.66 2839 1106.66 2839.11 1106.59 2839.11 1106.52 2839.12 1106.46 2839.12ZM1041.97 2819.3C1036.06 2819.3 1031.22 2814.57 1031.11 2808.64 1030.18 2757.39 1069.73 2733.97 1071.42 2733 1076.62 2730 1083.26 2731.78 1086.26 2736.98 1089.25 2742.17 1087.48 2748.79 1082.32 2751.8 1080.99 2752.58 1052.14 2770.16 1052.84 2808.24 1052.95 2814.24 1048.17 2819.19 1042.17 2819.3 1042.11 2819.3 1042.04 2819.3 1041.97 2819.3Z" class="color848484 svgShape"></path>
  <path fill="#161616" d="M1448.18 478.334L1319.95 465.691L1101.06 310.449C1101.06 310.449 1695.83 98.229 1746.16 128.892C1796.48 159.554 2174.04 586.522 2174.04 586.522L1874.18 649.414C1874.18 649.414 1768.16 490.181 1448.18 478.334Z" class="color161616 svgShape"></path>
  <path fill="#161616" d="M1874.18 660.281C1870.6 660.281 1867.18 658.501 1865.14 655.436C1864.89 655.07 1838.44 616.373 1774.17 576.763C1736.39 553.475 1693.11 534.427 1645.54 520.148C1585.95 502.26 1519.41 491.845 1447.78 489.193C1447.56 489.185 1447.34 489.17 1447.12 489.148L1318.89 476.505C1317.01 476.32 1315.21 475.648 1313.67 474.555L1094.78 319.313C1091.47 316.969 1089.75 312.98 1090.3 308.965C1090.86 304.95 1093.6 301.578 1097.41 300.216C1098.9 299.685 1248.06 246.533 1401.45 197.817C1491.66 169.168 1565.7 147.622 1621.52 133.779C1717.68 109.931 1741.34 113.236 1751.81 119.613C1773.57 132.868 1852.7 214.381 1987.01 361.89C2086.59 471.258 2181.24 578.256 2182.18 579.324C2184.74 582.223 2185.57 586.266 2184.35 589.94C2183.14 593.614 2180.06 596.362 2176.27 597.157L1876.41 660.05C1875.67 660.206 1874.92 660.282 1874.18 660.282L1874.18 660.281ZM1448.92 467.488C1522.7 470.245 1591.33 481.07 1652.88 499.661C1702.39 514.618 1747.49 534.611 1786.91 559.085C1840.17 592.158 1868.53 624.302 1878.76 637.351L2153.51 579.726C2040.66 452.448 1779.15 161.716 1740.5 138.172C1740.26 138.03 1734.28 134.712 1705.18 138.694C1685.54 141.383 1659.03 146.856 1626.39 154.96C1571 168.71 1497.44 190.129 1407.73 218.622C1287.51 256.812 1169.94 297.711 1124.45 313.71L1323.89 455.16L1448.92 467.487L1448.92 467.488Z" class="color161616 svgShape"></path>
  <path fill="#4a90e2" d="M1788.79 538.336C1788.79 538.336 1786.99 348.148 1679.07 329.821C1571.14 311.494 1526.82 327.51 1448.18 478.335C1505.98 533.453 1688.22 635.793 1788.79 538.336Z" class="color474747 svgShape"></path>
  <path fill="#4a90e2" d="M1682.17 585.999C1653.02 585.999 1624.56 580 1600.3 572.469C1534.85 552.146 1474.23 513.18 1443.19 483.577L1439.24 479.817L1441.76 474.986C1482.91 396.054 1513.96 355.332 1548.93 334.428C1585.87 312.343 1626.58 313.559 1680.28 322.679C1706.79 327.179 1729.41 341.681 1747.53 365.779C1761.65 384.557 1773.04 409.192 1781.38 438.999C1795.42 489.184 1796.02 536.287 1796.03 538.267L1796.06 541.375L1793.83 543.538C1760.99 575.358 1720.98 585.999 1682.17 585.999ZM1457.17 476.789C1487.3 503.961 1544.5 539.972 1604.59 558.633C1656.64 574.792 1729.21 583.654 1781.46 535.298C1781.07 524.03 1778.92 483.851 1767.35 442.638C1759.49 414.636 1748.9 391.671 1735.88 374.382C1720.07 353.406 1700.55 340.816 1677.86 336.963C1609.8 325.407 1580.91 332.184 1556.36 346.864C1524.59 365.854 1495.69 403.657 1457.17 476.789H1457.17Z" class="color474747 svgShape"></path>
  <path fill="#161616" d="M1763.32 568.586C1759.58 568.586 1755.93 566.648 1753.91 563.174C1750.9 557.985 1752.67 551.335 1757.86 548.321C1764.76 544.311 1771.45 539.408 1777.79 533.715C1776.58 505.117 1765.96 355.547 1677.32 340.536C1610.37 329.123 1582.13 335.674 1558.27 349.942C1526.84 368.73 1496.81 408.627 1457.83 483.349C1455.06 488.669 1448.49 490.732 1443.17 487.958C1437.85 485.183 1435.79 478.619 1438.56 473.298C1480.08 393.71 1511.53 352.568 1547.12 331.289C1585.04 308.613 1626.45 309.817 1680.96 319.11C1708.37 323.752 1731.75 338.711 1750.43 363.569C1764.81 382.702 1776.4 407.737 1784.86 437.98C1799.03 488.62 1799.66 536.195 1799.67 538.195C1799.7 541.184 1798.5 544.053 1796.35 546.127C1787.74 554.426 1778.46 561.487 1768.77 567.114C1767.05 568.111 1765.17 568.585 1763.32 568.585L1763.32 568.586Z" class="color161616 svgShape"></path>
  <path fill="#161616" d="M1731.65 527.92C1700.78 532.457 1625.17 534.347 1523.47 475.244C1523.47 475.244 1523.47 475.118 1523.34 475.118C1470.29 422.568 1680.74 480.159 1723.46 509.647C1735.69 518.09 1736.69 524.013 1731.65 527.92Z" class="color161616 svgShape"></path>
  <path fill="#b0b0b0" d="M1452.61 193.172C1452.61 193.172 1395.19 128.851 1346.27 199.53C1297.35 270.209 1238.67 430.797 1014.56 445.34C950.79 416.235 877.53 370.657 831.33 366.044C785.13 361.43 708.883 358.111 708.883 358.111C708.883 358.111 729.775 415.025 755.42 414.238C781.065 413.451 748 434.835 755.42 451.258C762.84 467.682 782.415 472.213 771.617 502.896C760.819 533.579 797.262 511.982 797.262 543.026C797.262 574.07 826.957 597.017 826.957 597.017C826.957 597.017 918.74 475.539 987.578 486.337C1056.42 497.135 1210.91 472.773 1273.36 381.698C1335.81 290.623 1403.3 200.19 1403.3 200.19L1452.61 193.172Z" class="color83c49f svgShape"></path>
  <path fill="#4a90e2" d="M826.957 607.882C824.566 607.882 822.227 607.093 820.314 605.615C818.929 604.545 786.397 578.993 786.397 543.026C786.397 535.948 784.748 535.458 777.806 533.393C772.323 531.762 764.812 529.528 760.901 521.857C756.937 514.084 759.269 505.254 761.369 499.288C766.874 483.644 762.974 479.091 755.896 470.824C752.366 466.702 748.365 462.031 745.519 455.731C740.265 444.101 746.004 432.777 750.582 424.786C737.558 422.811 725.008 411.823 713.204 392.034C704.358 377.204 698.911 362.473 698.684 361.853C697.432 358.441 697.968 354.63 700.112 351.696C702.257 348.762 705.731 347.095 709.357 347.253C710.123 347.286 786.44 350.638 832.411 355.229C866.797 358.663 912.344 381.941 960.565 406.585C979.184 416.1 998.406 425.925 1016.58 434.31C1097.13 428.622 1162.31 403.426 1215.76 357.328C1261.89 317.544 1290.78 269.341 1314 230.61C1322.16 216.994 1329.87 204.133 1337.33 193.344C1353.73 169.661 1373.06 156.971 1394.81 155.627C1431.21 153.383 1459.53 184.602 1460.72 185.933C1463.39 188.922 1464.2 193.136 1462.82 196.899C1461.45 200.662 1458.11 203.363 1454.15 203.928L1409.32 210.308C1396.14 228.065 1336.95 308.178 1282.33 387.842C1245.51 441.532 1182.39 469.031 1135.92 482.647C1084.66 497.665 1025.78 503.326 985.895 497.071C934.776 489.051 860.087 571.228 835.626 603.569C833.876 605.883 831.272 607.402 828.397 607.786C827.917 607.85 827.437 607.881 826.958 607.881L826.957 607.882ZM780.552 511.463C781.561 511.838 782.961 512.254 784.003 512.564C791.835 514.894 808.13 519.741 808.13 543.027C808.13 559.025 818.306 572.935 825.801 581.009C835.179 569.564 852.605 549.4 874.098 529.631C918.53 488.763 957.274 470.587 989.263 475.603C1056.18 486.102 1205.37 461.647 1264.4 375.554C1326.26 285.343 1393.92 194.598 1394.59 193.692C1396.32 191.374 1398.91 189.841 1401.77 189.433L1426.38 185.931C1417.96 180.87 1407.34 176.601 1396.05 177.327C1381.33 178.275 1367.58 187.826 1355.2 205.714C1348.14 215.919 1340.61 228.483 1332.64 241.785C1308.62 281.853 1278.73 331.72 1229.95 373.788C1172.19 423.605 1101.96 450.557 1015.26 456.184C1013.48 456.3 1011.68 455.972 1010.05 455.226C990.708 446.399 970.357 435.998 950.675 425.939C906.371 403.297 860.558 379.883 830.252 376.857C798.204 373.657 751.002 371.057 725.788 369.795C734.318 386.957 746.265 403.67 755.088 403.378C758.99 403.258 769.353 402.94 774.217 411.094C778.997 419.107 774.217 427.347 770.376 433.969C768.246 437.641 764.281 444.476 765.324 446.785C766.892 450.255 769.446 453.237 772.403 456.691C780.478 466.12 791.536 479.034 781.869 506.504C781.011 508.942 780.676 510.52 780.552 511.463Z" class="color474747 svgShape"></path>
  <path fill="#4a90e2" d="M1035.87 433.572C1036.33 417.622 1021.8 405.151 1006.19 408.46C996.115 410.595 986.688 416.522 983.646 430.475C976.221 464.537 979.784 488.054 979.784 488.054C979.784 488.054 1002.24 532.102 1034.29 488.485L1035.87 433.572Z" class="color474747 svgShape"></path>
  <path fill="#4a90e2" d="M1006.14 518.629C1005.29 518.629 1004.43 518.594 1003.57 518.524C982.834 516.838 971.345 495.425 970.103 492.989C969.574 491.95 969.215 490.834 969.041 489.681C968.883 488.64 965.267 463.772 973.03 428.16C976.534 412.083 987.509 401.311 1003.93 397.829C1014.55 395.578 1025.45 398.302 1033.84 405.302C1042.35 412.404 1047.05 422.822 1046.73 433.883L1045.15 488.797C1045.08 491.004 1044.35 493.138 1043.04 494.917C1031.47 510.663 1019.07 518.627 1006.14 518.627V518.629ZM990.324 484.613C992.874 488.74 998.858 496.369 1005.37 496.867C1010.52 497.251 1016.9 492.951 1023.53 484.667L1025.01 433.257C1025.14 428.9 1023.28 424.793 1019.92 421.989C1016.68 419.286 1012.5 418.229 1008.44 419.089C1000.33 420.809 995.954 425.034 994.264 432.789C988.548 459.011 989.752 478.694 990.325 484.613H990.324Z" class="color474747 svgShape"></path>
  <path fill="#161616" d="M1543.63 491.626C1534.81 485.325 1528.13 479.906 1523.47 475.243C1523.47 475.243 1523.47 475.117 1523.34 475.117C1470.29 422.567 1680.74 480.158 1723.46 509.646C1735.69 518.089 1736.69 524.012 1731.65 527.919C1717.41 539.387 1655.54 536.488 1655.54 536.488" class="color161616 svgShape"></path>
  <path fill="#161616" d="M1673.28 544.127C1664.96 544.127 1658.28 543.87 1655.2 543.725C1651.2 543.538 1648.12 540.147 1648.3 536.151C1648.49 532.155 1651.86 529.064 1655.87 529.254C1680.26 530.39 1718.21 529.013 1726.92 522.424C1726.25 521.359 1724.38 519.083 1719.34 515.608C1703.38 504.588 1658.3 487.587 1612.16 475.185C1588.75 468.893 1567.72 464.466 1551.33 462.382C1531.83 459.903 1524.66 461.541 1522.41 462.416C1522.96 463.589 1524.38 465.888 1528.03 469.558C1528.38 469.852 1528.71 470.18 1529.01 470.535C1533.32 474.773 1539.65 479.883 1547.84 485.732C1551.1 488.058 1551.85 492.582 1549.53 495.837C1547.2 499.092 1542.67 499.846 1539.42 497.521C1531.41 491.797 1525.15 486.813 1520.41 482.362H1520.36L1519 481.018C1518.78 480.799 1518.56 480.582 1518.35 480.366L1518.23 480.254C1518.08 480.104 1517.93 479.952 1517.78 479.799L1516.22 478.176C1509.51 470.918 1503.94 461.371 1510.46 453.512C1515.94 446.899 1528.34 445.109 1550.65 447.704C1567.52 449.666 1589.35 454.134 1613.8 460.626C1654.03 471.313 1706.8 489.346 1727.58 503.686C1737.07 510.243 1741.57 516.228 1741.74 522.524C1741.86 526.76 1739.87 530.692 1736.14 533.604C1724.97 542.529 1694.02 544.128 1673.28 544.128L1673.28 544.127Z" class="color161616 svgShape"></path>
  <path fill="#4a90e2" d="M1919.34 891.957L1890.49 851.297L1788.41 707.649L1765.46 675.197C1765.46 675.197 1888.54 493.547 2022.41 640.852C2135.36 764.975 1919.34 891.957 1919.34 891.957Z" class="color474747 svgShape"></path>
  <path fill="#4a90e2" d="M1917.28 901.571L1884.58 855.489L1782.5 711.844L1756.65 675.283L1759.46 671.132C1760.08 670.225 1774.8 648.656 1799.72 626.125C1833.06 595.977 1868.82 578.75 1903.14 576.307C1947.03 573.183 1988.95 593.261 2027.77 635.979C2055.15 666.069 2066.36 698.996 2061.07 733.841C2055.28 772.01 2030.18 811.332 1986.47 850.714C1954.32 879.68 1924.27 897.459 1923.01 898.201L1917.28 901.571ZM1774.37 675.251L1794.32 703.467L1896.39 847.101L1921.31 882.21C1931.46 875.724 1953.9 860.586 1976.98 839.762C2005.2 814.305 2040.2 774.883 2046.75 731.643C2051.34 701.334 2041.35 672.428 2017.05 645.727C1981.38 606.479 1943.43 587.987 1904.23 590.754C1838.46 595.4 1786.9 658.562 1774.37 675.25L1774.37 675.251Z" class="color474747 svgShape"></path>
  <path fill="#c4c4c4" d="M1890.49 851.297L1788.41 707.649C1824.09 674.528 1900.91 617.781 1965.63 671.671C2009.09 717.804 1984.07 799.76 1890.49 851.297Z" class="colorf29797 svgShape"></path>
  <path fill="#4a90e2" d="M1888.32 860.758 1778.82 706.663 1783.48 702.339C1801.99 685.156 1830.93 662.168 1863.65 650.226 1904.04 635.484 1939.91 640.826 1970.27 666.103L1970.6 666.384 1970.9 666.703C1989.07 685.988 1996.69 711.779 1992.36 739.323 1985.34 783.949 1949.49 827.075 1893.98 857.642L1888.32 860.758ZM1798.03 708.685 1892.61 841.775C1916.69 827.781 1936.41 811.405 1951.3 793.037 1965.87 775.065 1975.12 755.713 1978.05 737.073 1981.69 713.871 1975.68 693.094 1960.66 676.955 1934.62 655.46 1903.65 651.046 1868.61 663.835 1840.76 674.001 1815.55 693.053 1798.03 708.685ZM1107.56 830.984 1138.65 792.007 1248.64 654.315 1273.36 623.202C1273.36 623.202 1160.68 434.93 1018.75 574.489 899.009 692.076 1107.56 830.984 1107.56 830.984Z" class="color474747 svgShape"></path>
  <path fill="#4a90e2" d="M1109.08 840.698L1103.55 837.013C1102.33 836.201 1073.32 816.764 1042.85 786.038C1001.42 744.265 978.565 703.596 974.928 665.162C971.607 630.075 984.642 597.829 1013.67 569.321C1054.83 528.851 1097.83 511.161 1141.45 516.741C1175.58 521.107 1210.32 540.314 1241.91 572.286C1265.52 596.181 1279.02 618.541 1279.58 619.482L1282.15 623.784L1254.31 658.822L1144.31 796.528L1109.08 840.698ZM1125.91 530.236C1091.5 530.236 1057.23 546.811 1023.83 579.655C998.06 604.96 986.462 633.268 989.351 663.798C996.302 737.231 1083.35 804.66 1106.15 821.137L1132.99 787.491L1242.98 649.795L1264.46 622.757C1252.9 605.4 1204.96 539.436 1139.56 531.105C1135.01 530.526 1130.46 530.236 1125.91 530.236Z" class="color474747 svgShape"></path>
  <path fill="#c4c4c4" d="M1138.65 792.007L1248.64 654.315C1214.86 619.243 1141.36 558.274 1073.71 608.446C1027.73 652.067 1048.11 735.299 1138.65 792.007Z" class="colorf29797 svgShape"></path>
  <path fill="#4a90e2" d="M1140.28 801.575L1134.81 798.146C1081.11 764.512 1047.73 719.442 1043.23 674.492C1040.45 646.748 1049.5 621.426 1068.72 603.191L1069.04 602.889L1069.39 602.628C1101.12 579.094 1137.24 575.773 1176.74 592.76C1208.73 606.519 1236.33 631.096 1253.85 649.291L1258.26 653.87L1140.28 801.575ZM1078.38 614.002C1062.47 629.272 1055.3 649.679 1057.64 673.049C1059.52 691.824 1067.67 711.665 1081.21 730.426C1095.04 749.6 1113.81 767.058 1137.07 782.381L1238.97 654.808C1202.76 618.609 1137.69 570.393 1078.38 614.002Z" class="color474747 svgShape"></path>
  <path fill="#e0e0e0" d="M1178.35 1449.83C1207.99 1464.01 1242.4 1476.95 1281.96 1488.47C1391.14 1530.03 1385.7 1572.33 1515.84 1507.54C1595.02 1467.93 1847.1 1488.54 1919.39 1286.85C1944.03 1218.66 1947.96 1124.96 1917.72 994.975C1917.72 994.975 1917.09 545.507 1466.97 538.343C1257.32 537.349 1052.12 650.87 1059.35 1019.13C991.726 1192.65 970.927 1351.05 1178.35 1449.83Z" class="colorf7f7f7 svgShape"></path>
  <path fill="#4a90e2" d="M1413.95 1551.8C1413.9 1551.8 1413.85 1551.8 1413.79 1551.8C1387.34 1551.76 1367.34 1541.34 1342.03 1528.14C1324.86 1519.19 1305.42 1509.05 1278.5 1498.78C1239.35 1487.36 1204.09 1474.19 1173.68 1459.64C1074.18 1412.26 1019.01 1348.36 1004.99 1264.29C994.11 1199.02 1007.51 1122.74 1048.45 1017.19C1045.52 849.529 1086 721.927 1168.78 637.914C1240.53 565.08 1343.69 526.887 1467.03 527.476C1467.07 527.476 1467.11 527.476 1467.15 527.476C1571.98 529.145 1661.56 554.801 1733.41 603.731C1791.02 642.962 1837.27 697.053 1870.87 764.499C1887.29 797.454 1909.36 851.674 1921.31 922.833C1927.71 960.938 1928.48 987.587 1928.58 993.673C1943.09 1056.38 1950.3 1113.74 1950 1164.15C1949.73 1211.34 1942.87 1253.86 1929.61 1290.54C1905.12 1358.86 1859.24 1408.68 1789.34 1442.82C1730.49 1471.57 1664.27 1484.05 1611.07 1494.08C1573.15 1501.23 1540.4 1507.4 1520.71 1517.25C1472.08 1541.46 1440.14 1551.8 1413.95 1551.8L1413.95 1551.8ZM1464.32 549.202C1382.64 549.202 1268.7 567.455 1184.25 653.166C1105.39 733.211 1067.02 856.267 1070.21 1018.92C1070.24 1020.34 1069.99 1021.75 1069.47 1023.08C1029.43 1125.82 1016.16 1199.11 1026.43 1260.72C1039.19 1337.26 1090.41 1395.91 1183.03 1440.02C1183.03 1440.02 1183.04 1440.02 1183.05 1440.03C1212.5 1454.12 1246.8 1466.91 1285 1478.04C1285.28 1478.12 1285.56 1478.21 1285.83 1478.31C1314.14 1489.09 1335.18 1500.06 1352.08 1508.87C1376.1 1521.39 1392.7 1530.04 1414.47 1530.05C1436.74 1530.05 1464.41 1521 1511.01 1497.81C1533.4 1486.61 1567.53 1480.18 1607.05 1472.73C1713.04 1452.75 1858.2 1425.38 1909.16 1283.18C1935.19 1211.18 1934.5 1115.05 1907.14 997.437C1906.96 996.635 1906.86 995.814 1906.86 994.99C1906.86 993.891 1905.96 883.23 1851.08 773.516C1819.12 709.607 1775.29 658.441 1720.81 621.44C1652.6 575.115 1567.16 550.813 1466.86 549.208C1466.02 549.204 1465.17 549.202 1464.32 549.202H1464.32Z" class="color474747 svgShape"></path>
  <path fill="#c4c4c4" d="M1136.11 1218.2C1135.61 1229.58 1155.04 1239.68 1179.51 1240.76C1203.98 1241.84 1224.22 1233.5 1224.73 1222.12C1225.23 1210.75 1205.8 1200.65 1181.33 1199.56C1156.86 1198.48 1136.61 1206.82 1136.11 1218.2ZM1608.14 1226.41C1632.64 1226.12 1652.6 1235.11 1652.74 1246.5C1652.87 1257.89 1633.13 1267.35 1608.64 1267.65C1584.14 1267.94 1564.18 1258.94 1564.04 1247.56C1563.9 1236.17 1583.65 1226.7 1608.14 1226.41Z" class="colorf29797 svgShape"></path>
  <path fill="#4a90e2" d="M1401.88 1249.27C1433.74 1252.35 1492.69 1198.79 1412.76 1187.15C1332.82 1175.51 1373.79 1246.55 1401.88 1249.27Z" class="color474747 svgShape"></path>
  <path fill="#4a90e2" d="M1359.56 1375.06C1355.68 1375.06 1351.69 1374.71 1347.61 1374.01C1316.97 1368.71 1284.2 1341.34 1283.82 1301.07C1283.77 1295.07 1288.59 1290.16 1294.59 1290.1C1294.62 1290.1 1294.66 1290.1 1294.69 1290.1C1300.65 1290.1 1305.5 1294.9 1305.56 1300.86C1305.82 1329.37 1329.33 1348.79 1351.31 1352.6C1360.52 1354.19 1382.72 1355.09 1392.74 1330.01L1399.27 1225.59C1399.65 1219.6 1404.79 1215.04 1410.8 1215.42C1416.78 1215.79 1421.34 1220.95 1420.96 1226.94L1414.33 1333.02C1414.26 1334.07 1414.05 1335.1 1413.69 1336.09C1404.59 1360.85 1384.42 1375.06 1359.56 1375.06Z" class="color474747 svgShape"></path>
  <path fill="#4a90e2" d="M1462.55 1387.16C1461.23 1387.16 1459.9 1387.12 1458.55 1387.03 1433.87 1385.38 1412.18 1368.82 1394.1 1337.81 1391.08 1332.63 1392.83 1325.98 1398.01 1322.95 1403.2 1319.93 1409.85 1321.68 1412.87 1326.87 1427.08 1351.23 1442.91 1364.17 1459.93 1365.34 1489.41 1367.36 1515.55 1334.5 1515.81 1334.16 1519.51 1329.45 1526.34 1328.61 1531.06 1332.3 1535.78 1335.99 1536.63 1342.8 1532.95 1347.53 1531.65 1349.2 1501.64 1387.16 1462.55 1387.16L1462.55 1387.16ZM1333.34 1153.02C1353.54 1125.2 1347.69 854.746 1247.63 948.446 1147.57 1042.14 1128.67 1181.65 1216.16 1186.36 1324.93 1192.21 1333.34 1153.02 1333.34 1153.02H1333.34Z" class="color474747 svgShape"></path>
  <path fill="#e0e0e0" d="M1281.62 1129.2C1280.56 1129.2 1279.5 1129.16 1278.43 1129.08C1272.44 1128.62 1267.97 1123.39 1268.43 1117.41C1268.89 1111.43 1274.1 1106.94 1280.09 1107.41C1282.47 1107.59 1284.81 1107.33 1287.03 1106.8L1240.84 1078.36C1235.73 1075.21 1234.14 1068.52 1237.28 1063.41C1240.43 1058.3 1247.12 1056.71 1252.23 1059.85L1314.52 1098.2C1317.45 1100 1319.36 1103.09 1319.65 1106.52C1319.95 1109.94 1318.61 1113.31 1316.03 1115.59C1314.38 1117.05 1300.09 1129.2 1281.62 1129.2Z" class="colorf7f7f7 svgShape"></path>
  <path fill="#4a90e2" d="M1524.91 1172.27C1503.2 1145.1 1514.3 877.432 1622.56 968.403C1730.82 1059.37 1749.17 1197.07 1653.01 1203.23C1533.46 1210.9 1524.91 1172.27 1524.91 1172.27Z" class="color474747 svgShape"></path>
  <path fill="#e0e0e0" d="M1576.23 1147.82C1557.75 1147.82 1543.47 1135.67 1541.82 1134.21C1539.24 1131.93 1537.9 1128.57 1538.19 1125.14C1538.49 1121.71 1540.39 1118.63 1543.32 1116.82L1605.61 1078.48C1610.72 1075.33 1617.42 1076.92 1620.56 1082.03C1623.71 1087.14 1622.12 1093.84 1617.01 1096.98L1570.82 1125.42C1573.03 1125.95 1575.38 1126.22 1577.75 1126.03C1583.73 1125.57 1588.96 1130.05 1589.42 1136.03C1589.88 1142.02 1585.4 1147.24 1579.42 1147.7C1578.35 1147.78 1577.28 1147.82 1576.23 1147.82H1576.23Z" class="colorf7f7f7 svgShape"></path>
  <path fill="#b0b0b0" d="M2158.9 1455.78L2250.68 1317.68L2335.28 1408.59L2189.91 1480L2158.9 1455.78Z" class="color83c49f svgShape"></path>
  <path fill="#4a90e2" d="M2189.91 1490.86C2187.53 1490.86 2185.16 1490.08 2183.22 1488.56L2152.21 1464.34C2147.73 1460.85 2146.71 1454.49 2149.85 1449.76L2241.63 1311.66C2243.47 1308.89 2246.48 1307.12 2249.8 1306.85C2253.11 1306.58 2256.37 1307.84 2258.64 1310.28L2343.23 1401.19C2345.57 1403.71 2346.59 1407.19 2345.96 1410.57C2345.34 1413.95 2343.15 1416.83 2340.07 1418.35L2194.7 1489.75C2193.18 1490.5 2191.54 1490.86 2189.91 1490.86ZM2173.52 1453.41L2191.23 1467.24L2317.36 1405.29L2252.11 1335.16L2173.52 1453.41Z" class="color474747 svgShape"></path>
  <path fill="#b0b0b0" d="M2193.03 1543.78L2292.39 1504.04V1561.72L2200.36 1576.94L2193.03 1543.78Z" class="color83c49f svgShape"></path>
  <path fill="#4a90e2" d="M2200.35 1587.81C2195.34 1587.81 2190.86 1584.33 2189.75 1579.28L2182.42 1546.12C2181.28 1540.93 2184.06 1535.66 2189 1533.69L2288.36 1493.95C2291.71 1492.62 2295.5 1493.02 2298.49 1495.05C2301.47 1497.07 2303.26 1500.44 2303.26 1504.04V1561.72C2303.26 1567.04 2299.41 1571.58 2294.17 1572.44L2202.13 1587.66C2201.53 1587.76 2200.93 1587.81 2200.35 1587.81H2200.35ZM2205.63 1550.44L2208.75 1564.54L2281.53 1552.51V1520.09L2205.63 1550.44Z" class="color474747 svgShape"></path>
  <path fill="#b0b0b0" d="M764.343 1102.22L667.551 920.82L596.122 992.331L731.148 1123.34L764.343 1102.22Z" class="color83c49f svgShape"></path>
  <path fill="#4a90e2" d="M731.152 1134.21C728.399 1134.21 725.668 1133.17 723.582 1131.14L588.556 1000.13C586.468 998.102 585.28 995.324 585.257 992.415C585.235 989.506 586.379 986.709 588.435 984.651L659.864 913.14C662.298 910.704 665.742 909.565 669.147 910.071C672.553 910.576 675.518 912.666 677.139 915.704L773.93 1097.11C776.604 1102.12 774.968 1108.34 770.177 1111.39L736.983 1132.51C735.191 1133.65 733.166 1134.21 731.153 1134.21L731.152 1134.21ZM611.601 992.209L732.556 1109.57L750.018 1098.46L664.871 938.878L611.601 992.209Z" class="color474747 svgShape"></path>
  <path fill="#b0b0b0" d="M713.538 1201.54L618.466 1152.42L612.913 1209.83L703.054 1233.84L713.538 1201.54Z" class="color83c49f svgShape"></path>
  <path fill="#4a90e2" d="M703.06 1244.71C702.134 1244.71 701.193 1244.59 700.258 1244.34L610.116 1220.33C604.978 1218.96 601.585 1214.08 602.097 1208.78L607.651 1151.37C607.998 1147.79 610.103 1144.6 613.269 1142.88C616.436 1141.15 620.251 1141.11 623.454 1142.77L718.526 1191.88C723.253 1194.32 725.516 1199.83 723.874 1204.89L713.391 1237.19C711.907 1241.77 707.661 1244.71 703.061 1244.71L703.06 1244.71ZM624.616 1201.7L695.899 1220.69L700.356 1206.95L627.737 1169.44L624.616 1201.7Z" class="color474747 svgShape"></path>
</svg>